<svg width="144" height="28" viewBox="0 0 144 28" fill="none" xmlns="http://www.w3.org/2000/svg">
<rect x="0.5" y="0.5" width="143" height="27" rx="13.5" stroke="#BF6024"/>
<path d="M21.8867 9.04688V19H20.1777V10.4141H15.7549V19H14.0459V9.04688H21.8867ZM31.8877 13.75V14.2969C31.8877 15.0488 31.7897 15.7233 31.5938 16.3203C31.3978 16.9173 31.1175 17.4255 30.7529 17.8447C30.3929 18.264 29.96 18.5853 29.4541 18.8086C28.9482 19.0273 28.3877 19.1367 27.7725 19.1367C27.1618 19.1367 26.6035 19.0273 26.0977 18.8086C25.5964 18.5853 25.1611 18.264 24.792 17.8447C24.4229 17.4255 24.1357 16.9173 23.9307 16.3203C23.7301 15.7233 23.6299 15.0488 23.6299 14.2969V13.75C23.6299 12.998 23.7301 12.3258 23.9307 11.7334C24.1312 11.1364 24.4137 10.6283 24.7783 10.209C25.1475 9.78516 25.5827 9.46387 26.084 9.24512C26.5898 9.02181 27.1481 8.91016 27.7588 8.91016C28.374 8.91016 28.9346 9.02181 29.4404 9.24512C29.9463 9.46387 30.3815 9.78516 30.7461 10.209C31.1107 10.6283 31.391 11.1364 31.5869 11.7334C31.7874 12.3258 31.8877 12.998 31.8877 13.75ZM30.1719 14.2969V13.7363C30.1719 13.1803 30.1172 12.6904 30.0078 12.2666C29.903 11.8382 29.7458 11.4805 29.5361 11.1934C29.3311 10.9017 29.0781 10.6829 28.7773 10.5371C28.4766 10.3867 28.137 10.3115 27.7588 10.3115C27.3805 10.3115 27.0433 10.3867 26.7471 10.5371C26.4508 10.6829 26.1979 10.9017 25.9883 11.1934C25.7832 11.4805 25.626 11.8382 25.5166 12.2666C25.4072 12.6904 25.3525 13.1803 25.3525 13.7363V14.2969C25.3525 14.8529 25.4072 15.3451 25.5166 15.7734C25.626 16.2018 25.7855 16.5641 25.9951 16.8604C26.2093 17.152 26.4645 17.373 26.7607 17.5234C27.057 17.6693 27.3942 17.7422 27.7725 17.7422C28.1553 17.7422 28.4948 17.6693 28.791 17.5234C29.0872 17.373 29.3379 17.152 29.543 16.8604C29.748 16.5641 29.903 16.2018 30.0078 15.7734C30.1172 15.3451 30.1719 14.8529 30.1719 14.2969ZM41.2324 17.6396V19H33.8975V17.6396H41.2324ZM34.3213 17.6396V21.4473H32.6807L32.6191 17.6396H34.3213ZM42.5586 17.6396L42.4561 21.4404H40.8428V17.6396H42.5586ZM40.0293 9.04688V10.4141H35.4355V9.04688H40.0293ZM41.3418 9.04688V19H39.6328V9.04688H41.3418ZM35.0938 9.04688H36.8096L36.5703 13.0801C36.5339 13.7181 36.4678 14.2923 36.3721 14.8027C36.2764 15.3132 36.1602 15.7712 36.0234 16.1768C35.8913 16.5778 35.7409 16.9333 35.5723 17.2432C35.4036 17.5485 35.2236 17.8128 35.0322 18.0361C34.8408 18.2594 34.6449 18.4508 34.4443 18.6104C34.2484 18.7653 34.0547 18.8952 33.8633 19H32.9473V17.6396H33.3916C33.5146 17.5257 33.6514 17.3617 33.8018 17.1475C33.9521 16.9287 34.098 16.6439 34.2393 16.293C34.3851 15.9375 34.5127 15.4977 34.6221 14.9736C34.7314 14.4495 34.8066 13.8184 34.8477 13.0801L35.0938 9.04688ZM51.6299 13.75V14.2969C51.6299 15.0488 51.5319 15.7233 51.3359 16.3203C51.14 16.9173 50.8597 17.4255 50.4951 17.8447C50.1351 18.264 49.7021 18.5853 49.1963 18.8086C48.6904 19.0273 48.1299 19.1367 47.5146 19.1367C46.904 19.1367 46.3457 19.0273 45.8398 18.8086C45.3385 18.5853 44.9033 18.264 44.5342 17.8447C44.165 17.4255 43.8779 16.9173 43.6729 16.3203C43.4723 15.7233 43.3721 15.0488 43.3721 14.2969V13.75C43.3721 12.998 43.4723 12.3258 43.6729 11.7334C43.8734 11.1364 44.1559 10.6283 44.5205 10.209C44.8896 9.78516 45.3249 9.46387 45.8262 9.24512C46.332 9.02181 46.8903 8.91016 47.501 8.91016C48.1162 8.91016 48.6768 9.02181 49.1826 9.24512C49.6885 9.46387 50.1237 9.78516 50.4883 10.209C50.8529 10.6283 51.1331 11.1364 51.3291 11.7334C51.5296 12.3258 51.6299 12.998 51.6299 13.75ZM49.9141 14.2969V13.7363C49.9141 13.1803 49.8594 12.6904 49.75 12.2666C49.6452 11.8382 49.488 11.4805 49.2783 11.1934C49.0732 10.9017 48.8203 10.6829 48.5195 10.5371C48.2188 10.3867 47.8792 10.3115 47.501 10.3115C47.1227 10.3115 46.7855 10.3867 46.4893 10.5371C46.193 10.6829 45.9401 10.9017 45.7305 11.1934C45.5254 11.4805 45.3682 11.8382 45.2588 12.2666C45.1494 12.6904 45.0947 13.1803 45.0947 13.7363V14.2969C45.0947 14.8529 45.1494 15.3451 45.2588 15.7734C45.3682 16.2018 45.5277 16.5641 45.7373 16.8604C45.9515 17.152 46.2067 17.373 46.5029 17.5234C46.7992 17.6693 47.1364 17.7422 47.5146 17.7422C47.8975 17.7422 48.237 17.6693 48.5332 17.5234C48.8294 17.373 49.0801 17.152 49.2852 16.8604C49.4902 16.5641 49.6452 16.2018 49.75 15.7734C49.8594 15.3451 49.9141 14.8529 49.9141 14.2969ZM59.6553 9.04688V10.4141H55.0273V19H53.3184V9.04688H59.6553ZM54.5078 12.8682H57.0098C57.7663 12.8682 58.4134 12.9958 58.9512 13.251C59.4889 13.5016 59.8991 13.8548 60.1816 14.3105C60.4642 14.7663 60.6055 15.2972 60.6055 15.9033C60.6055 16.359 60.5257 16.776 60.3662 17.1543C60.2067 17.5326 59.972 17.8607 59.6621 18.1387C59.3522 18.4121 58.974 18.624 58.5273 18.7744C58.0853 18.9248 57.5794 19 57.0098 19H53.3184V9.04688H55.041V17.6396H57.0098C57.4427 17.6396 57.7982 17.5599 58.0762 17.4004C58.3542 17.2363 58.5592 17.0221 58.6914 16.7578C58.8281 16.4935 58.8965 16.2041 58.8965 15.8896C58.8965 15.5843 58.8281 15.3063 58.6914 15.0557C58.5592 14.805 58.3542 14.6045 58.0762 14.4541C57.7982 14.3037 57.4427 14.2285 57.0098 14.2285H54.5078V12.8682ZM65.9307 15.2881H63.3398V13.9277H65.9307C66.3818 13.9277 66.7464 13.8548 67.0244 13.709C67.3024 13.5632 67.5052 13.3626 67.6328 13.1074C67.765 12.8477 67.8311 12.5514 67.8311 12.2188C67.8311 11.9043 67.765 11.6104 67.6328 11.3369C67.5052 11.0589 67.3024 10.8356 67.0244 10.667C66.7464 10.4984 66.3818 10.4141 65.9307 10.4141H63.8662V19H62.1504V9.04688H65.9307C66.7008 9.04688 67.3548 9.18359 67.8926 9.45703C68.4349 9.72591 68.8473 10.0996 69.1299 10.5781C69.4124 11.0521 69.5537 11.5944 69.5537 12.2051C69.5537 12.8477 69.4124 13.3991 69.1299 13.8594C68.8473 14.3197 68.4349 14.6729 67.8926 14.9189C67.3548 15.165 66.7008 15.2881 65.9307 15.2881ZM73.9287 10.373L70.9551 19H69.1572L72.9033 9.04688H74.0518L73.9287 10.373ZM76.417 19L73.4365 10.373L73.3066 9.04688H74.4619L78.2217 19H76.417ZM76.2734 15.3086V16.6689H70.8594V15.3086H76.2734ZM82.5693 9.04688V19H80.8672V9.04688H82.5693ZM85.6934 9.04688V10.4141H77.7705V9.04688H85.6934ZM88.2773 12.8682H90.7793C91.5358 12.8682 92.1829 12.9958 92.7207 13.251C93.2585 13.5016 93.6686 13.8548 93.9512 14.3105C94.2337 14.7663 94.375 15.2972 94.375 15.9033C94.375 16.359 94.2952 16.776 94.1357 17.1543C93.9762 17.5326 93.7415 17.8607 93.4316 18.1387C93.1217 18.4121 92.7435 18.624 92.2969 18.7744C91.8548 18.9248 91.349 19 90.7793 19H87.0879V9.04688H88.8105V17.6396H90.7793C91.2122 17.6396 91.5677 17.5599 91.8457 17.4004C92.1237 17.2363 92.3288 17.0221 92.4609 16.7578C92.5977 16.4935 92.666 16.2041 92.666 15.8896C92.666 15.5843 92.5977 15.3063 92.4609 15.0557C92.3288 14.805 92.1237 14.6045 91.8457 14.4541C91.5677 14.3037 91.2122 14.2285 90.7793 14.2285H88.2773V12.8682Z" fill="#BF6024"/>
<path d="M131.354 14.3536C131.549 14.1583 131.549 13.8417 131.354 13.6464L128.172 10.4645C127.976 10.2692 127.66 10.2692 127.464 10.4645C127.269 10.6597 127.269 10.9763 127.464 11.1716L130.293 14L127.464 16.8284C127.269 17.0237 127.269 17.3403 127.464 17.5355C127.66 17.7308 127.976 17.7308 128.172 17.5355L131.354 14.3536ZM105 14.5L131 14.5L131 13.5L105 13.5L105 14.5Z" fill="#BF6024"/>
</svg>
